<?xml version="1.0" standalone="no"?>
<!DOCTYPE svg PUBLIC "-//W3C//DTD SVG 20010904//EN"
 "http://www.w3.org/TR/2001/REC-SVG-20010904/DTD/svg10.dtd">
<svg version="1.0" xmlns="http://www.w3.org/2000/svg"
 width="900.000000pt" height="900.000000pt" viewBox="0 0 900.000000 900.000000"
 preserveAspectRatio="xMidYMid meet">

<g transform="translate(0.000000,900.000000) scale(0.100000,-0.100000)"
fill="#000000" stroke="none">
<path d="M3961 7894 c-175 -47 -318 -198 -351 -373 -6 -34 -10 -436 -10 -1117
l0 -1064 -1063 0 c-723 0 -1082 -3 -1123 -11 -175 -32 -336 -190 -373 -367
-14 -68 -15 -1086 -1 -1163 17 -90 72 -190 141 -253 33 -31 83 -68 110 -81
109 -56 85 -55 1242 -55 l1067 0 0 -1064 c0 -681 4 -1083 10 -1117 34 -177
177 -327 355 -374 82 -21 1122 -22 1200 -1 172 46 305 180 350 351 13 51 15
201 15 1132 l0 1073 1068 0 c1145 0 1128 0 1236 51 113 53 228 201 255 327 14
69 15 1097 1 1173 -32 172 -199 336 -374 368 -41 8 -400 11 -1123 11 l-1063 0
0 1073 c0 1181 3 1128 -62 1249 -36 68 -135 165 -199 196 -105 51 -125 52
-709 51 -443 0 -555 -3 -599 -15z"/>
</g>
</svg>
