<?xml version="1.0" standalone="no"?>
<!DOCTYPE svg PUBLIC "-//W3C//DTD SVG 20010904//EN"
 "http://www.w3.org/TR/2001/REC-SVG-20010904/DTD/svg10.dtd">
<svg version="1.0" xmlns="http://www.w3.org/2000/svg"
 width="686.000000pt" height="255.000000pt" viewBox="0 0 686.000000 255.000000"
 preserveAspectRatio="xMidYMid meet">

<g transform="translate(0.000000,255.000000) scale(0.100000,-0.100000)"
fill="#000000" stroke="none">
<path d="M950 2415 c-6 -8 -28 -79 -48 -157 l-37 -143 -40 -8 c-22 -5 -67 -18
-100 -29 -96 -31 -95 -31 -95 -17 0 7 19 32 41 55 69 71 42 87 -109 64 -37 -6
-138 -14 -224 -18 -155 -8 -158 -8 -195 -38 -21 -17 -49 -50 -61 -75 -22 -40
-23 -53 -18 -143 3 -54 7 -100 8 -101 2 -1 64 2 139 6 l136 8 81 52 c46 29 85
49 89 46 12 -12 -23 -82 -47 -94 -14 -7 -90 -42 -170 -78 -177 -80 -236 -129
-208 -174 9 -15 9 -26 1 -44 -14 -31 -1 -89 28 -118 15 -15 33 -19 83 -19 36
0 68 -5 71 -10 4 -6 -4 -32 -17 -58 -19 -40 -28 -48 -58 -53 -51 -8 -59 -15
-86 -76 -47 -105 -27 -185 54 -227 43 -22 78 -20 140 9 39 18 52 21 52 10 0
-8 -5 -17 -10 -20 -6 -4 -19 -24 -30 -45 -11 -21 -60 -78 -108 -127 -49 -48
-102 -110 -117 -136 -25 -44 -27 -55 -23 -121 6 -97 30 -144 88 -174 37 -19
54 -22 95 -17 56 7 75 19 75 46 0 46 135 79 322 79 121 0 456 -37 548 -60 25
-6 55 -14 66 -17 12 -2 46 -25 75 -49 30 -24 75 -58 100 -74 26 -17 59 -46 74
-66 14 -19 36 -44 48 -55 24 -22 214 -129 230 -129 5 0 23 11 39 25 29 24 37
26 129 24 71 -1 102 2 113 12 9 8 26 22 38 31 13 9 37 28 53 41 17 13 62 44
100 69 39 26 79 56 89 67 18 19 18 19 63 -15 53 -40 103 -45 163 -14 29 15 59
20 118 20 73 0 81 2 95 24 12 18 27 24 72 29 31 3 67 13 80 21 17 11 69 19
166 26 77 6 152 13 165 16 14 4 24 2 24 -4 0 -9 -32 -87 -86 -208 l-13 -32 34
-6 c63 -12 147 54 367 287 84 89 156 164 160 165 5 2 8 -2 8 -10 0 -7 17 -64
37 -125 29 -89 41 -113 55 -113 11 0 23 -11 29 -27 5 -16 28 -65 50 -110 35
-71 46 -85 83 -102 23 -12 62 -21 87 -21 24 0 59 -4 78 -10 28 -8 41 -5 85 17
50 25 163 116 199 160 23 29 28 29 61 -2 45 -42 104 -67 139 -60 82 15 297 70
297 75 0 3 -18 16 -40 30 -88 55 15 75 376 74 228 0 271 2 267 14 -5 11 2 12
33 6 119 -21 322 -109 414 -178 93 -71 115 -79 218 -84 89 -4 93 -4 119 22 14
15 45 35 67 45 42 19 99 69 126 110 8 12 31 32 50 43 77 47 134 141 146 243 9
71 -14 235 -32 235 -7 0 -15 -8 -18 -18 -10 -29 -66 -82 -105 -98 -27 -12 -64
-15 -151 -12 -110 4 -121 7 -255 57 -90 34 -203 66 -319 91 -98 21 -185 45
-191 52 -18 18 -45 147 -45 212 l0 56 198 1 c108 1 208 4 222 8 20 6 26 15 32
51 15 98 31 156 54 196 29 49 30 75 4 133 -11 24 -18 53 -14 63 7 22 -58 108
-81 108 -8 0 -35 -13 -60 -29 -47 -30 -104 -46 -187 -54 -42 -4 -50 -1 -79 29
-26 27 -30 37 -24 61 11 47 20 51 95 45 152 -11 444 32 570 83 74 30 95 47 87
69 -8 20 -94 33 -119 17 -14 -8 -29 -8 -63 0 -25 6 -48 15 -50 20 -3 4 2 24
12 43 16 34 16 38 0 71 -10 20 -15 46 -11 59 4 18 -3 30 -38 58 -95 77 -76 73
-353 75 -714 7 -847 7 -852 1 -2 -5 -31 -8 -63 -8 -71 0 -102 -11 -149 -52
-66 -57 -83 -90 -85 -160 -1 -52 3 -69 22 -92 12 -16 22 -34 22 -41 0 -7 8
-22 18 -34 16 -19 20 -20 77 -7 101 23 178 28 199 13 27 -20 23 -64 -10 -98
-27 -29 -27 -29 -8 -47 10 -10 28 -35 39 -55 11 -20 23 -37 26 -37 23 0 174
200 219 290 30 61 49 80 76 80 25 0 24 1 115 -138 36 -54 98 -130 150 -181 53
-52 89 -96 89 -107 0 -11 -16 -39 -36 -63 -37 -42 -37 -42 -15 -57 33 -24 25
-57 -33 -142 -56 -82 -89 -159 -108 -246 -6 -28 -15 -59 -20 -69 -8 -16 3 -32
66 -97 42 -43 76 -81 76 -84 0 -36 -241 -286 -275 -286 -10 0 -69 51 -132 112
l-114 113 -27 -35 c-94 -123 -240 -248 -358 -305 -85 -42 -117 -44 -140 -10
-15 23 -15 27 5 57 49 79 102 168 107 182 5 14 -15 16 -179 16 l-185 0 -78
-85 c-90 -99 -114 -107 -159 -52 -71 84 -290 313 -307 319 -10 4 -50 33 -89
64 -79 64 -86 64 -150 -2 l-32 -33 49 -48 c27 -27 61 -58 77 -70 28 -24 35
-61 15 -81 -9 -9 -99 -12 -343 -12 l-332 0 -11 -25 c-16 -35 -152 -175 -170
-175 -27 0 -52 32 -69 89 -22 76 -50 115 -142 199 -67 61 -81 69 -91 57 -26
-31 -60 -17 -134 55 -40 39 -75 70 -79 70 -3 0 -22 -25 -42 -55 -125 -188
-356 -305 -611 -308 -129 -2 -149 6 -141 60 l6 33 -250 0 -249 0 -12 25 c-9
20 -6 45 17 132 37 146 47 163 90 163 l35 0 0 132 0 132 -80 79 c-76 74 -81
82 -78 118 1 29 -5 49 -28 80 -44 63 -75 82 -144 87 -33 2 -64 10 -70 17 -5 6
-15 58 -21 114 -16 152 -40 141 311 141 193 0 290 -4 297 -11 8 -8 17 -8 31 0
14 7 122 11 316 11 285 0 297 -1 317 -21 11 -11 18 -28 15 -37 -2 -9 -7 -53
-11 -97 -8 -91 -22 -115 -69 -115 -62 0 -108 -21 -158 -72 -26 -27 -48 -58
-48 -69 0 -18 9 -19 215 -19 243 0 223 -7 245 90 14 63 34 90 65 90 30 0 48
-24 74 -100 13 -36 26 -69 31 -73 4 -4 27 27 52 70 58 98 134 187 217 253 66
53 149 100 176 100 8 0 45 -18 80 -41 l65 -41 34 21 c52 33 83 27 156 -29 36
-27 71 -49 77 -50 7 0 33 20 57 45 26 26 55 45 67 45 15 0 62 -40 141 -117
103 -102 121 -116 129 -100 15 25 65 22 82 -5 13 -21 21 -46 57 -185 17 -66
30 -51 30 35 0 86 -4 95 -77 175 -35 37 -43 52 -38 70 11 36 35 47 105 47 118
0 286 55 335 110 11 13 35 29 52 36 18 8 32 18 31 22 0 4 1 14 5 22 3 8 7 36
10 62 6 64 36 119 76 140 18 9 45 34 59 55 13 21 34 48 45 60 21 24 17 53 -8
53 -8 0 -41 -9 -73 -20 -93 -34 -199 -51 -334 -56 l-126 -4 -68 46 c-38 26
-87 55 -109 65 -43 20 -125 25 -125 8 0 -5 -16 -17 -36 -25 -23 -10 -40 -26
-47 -44 -16 -43 -78 -47 -282 -15 -219 35 -517 29 -602 -12 -18 -8 -54 -45
-84 -86 l-52 -71 7 -89 c6 -79 5 -92 -14 -122 -18 -29 -21 -51 -22 -142 0 -59
2 -118 6 -130 5 -16 -1 -30 -22 -54 l-29 -33 -28 61 c-27 62 -41 73 -96 73
-33 0 -54 -24 -70 -80 -17 -63 -25 -68 -55 -39 l-26 24 -49 -28 c-49 -27 -89
-35 -89 -18 0 5 20 26 45 46 80 66 129 182 90 215 -21 17 -19 38 5 52 25 16
110 168 110 196 0 12 -19 49 -43 84 l-43 63 -60 6 c-32 4 -92 7 -132 8 -66 1
-73 3 -81 25 -5 13 -26 49 -45 80 -58 89 -104 109 -177 78 -71 -31 -118 -78
-155 -157 -19 -40 -55 -94 -86 -126 -51 -54 -55 -56 -95 -52 -46 5 -52 16 -27
44 23 26 46 126 39 170 -4 21 -20 56 -35 78 -23 31 -40 43 -83 55 -71 21 -200
22 -217 1z m2945 -541 c19 -30 9 -44 -32 -44 -17 0 -23 7 -29 34 -3 19 -3 40
1 45 9 15 38 -2 60 -35z m1225 -99 c0 -8 -11 -22 -25 -31 -20 -13 -28 -14 -40
-4 -22 18 -19 27 13 38 39 15 52 14 52 -3z m-4413 -168 c6 -7 -66 -178 -83
-196 -25 -28 -34 -1 -34 106 l0 106 56 -6 c31 -3 58 -8 61 -10z m199 -395 c-8
-15 -22 -34 -30 -41 -28 -24 -19 24 11 60 31 36 42 25 19 -19z m-233 -250 c12
-61 5 -72 -43 -72 -37 0 -40 2 -40 29 0 16 3 43 6 60 6 29 10 32 38 29 27 -3
31 -7 39 -46z"/>
<path d="M5312 1963 c-95 -163 -239 -342 -262 -328 -6 4 -22 29 -36 56 -46 92
-73 77 -98 -53 -18 -97 -52 -198 -67 -198 -5 0 -9 33 -9 74 0 63 4 82 31 132
17 33 58 92 91 133 48 59 59 78 51 90 -25 38 -260 -4 -408 -73 -87 -40 -106
-42 -190 -21 -79 20 -151 56 -202 100 -23 19 -47 35 -53 35 -7 0 -28 -14 -47
-30 -74 -66 -196 -108 -342 -119 -118 -9 -122 -19 -43 -112 l63 -74 -3 -95
c-3 -89 -4 -95 -25 -98 -22 -3 -29 12 -63 148 -25 99 -30 110 -56 110 -26 0
-28 -4 -65 -107 -21 -61 -23 -63 -57 -63 l-36 0 47 48 c26 26 47 56 47 67 0
24 -227 255 -250 255 -9 0 -38 -22 -65 -50 -27 -27 -54 -50 -60 -50 -7 0 -22
11 -35 25 -14 15 -49 42 -78 62 -53 35 -55 35 -86 19 -17 -9 -39 -22 -48 -28
-14 -10 -22 -10 -35 -1 -46 33 -120 73 -133 73 -32 0 -146 -78 -221 -150 -76
-74 -156 -185 -193 -268 -10 -23 -22 -42 -25 -42 -3 0 -22 46 -42 103 -34 98
-37 102 -65 102 -28 0 -30 -3 -50 -80 l-21 -80 -236 -3 -237 -2 0 24 c0 27 78
119 119 140 14 8 52 17 84 21 32 4 60 13 63 19 2 6 8 51 14 100 7 64 6 93 -1
103 -17 19 -602 19 -618 -1 -8 -10 -8 -36 1 -102 12 -82 15 -90 41 -102 l27
-13 -26 -35 c-15 -19 -30 -34 -35 -34 -4 0 -22 20 -38 44 -27 38 -29 48 -20
73 5 16 11 63 12 104 l2 74 -285 2 c-157 2 -291 -1 -298 -6 -11 -6 -12 -28 -6
-101 8 -114 20 -130 94 -130 41 0 55 -5 86 -32 65 -57 93 -103 87 -146 -4 -36
-1 -40 71 -105 l76 -68 0 -159 0 -159 -35 6 c-32 5 -36 3 -49 -28 -23 -55 -59
-216 -53 -233 6 -14 40 -16 278 -16 l272 0 -21 -23 c-47 -50 -19 -77 80 -77
135 0 306 46 414 111 73 44 166 135 211 207 20 31 37 59 39 61 2 2 41 -31 87
-73 46 -42 91 -76 99 -76 28 0 38 24 28 61 -6 18 -10 36 -10 38 0 3 14 -8 30
-24 17 -16 30 -37 30 -47 0 -10 42 -60 94 -111 88 -87 95 -96 117 -167 31 -98
48 -102 114 -28 27 29 64 74 82 100 l35 48 331 2 c328 3 332 3 335 24 2 15
-12 32 -50 62 -53 41 -102 97 -96 110 2 4 29 31 60 61 41 38 61 51 70 44 7 -5
45 -35 84 -66 39 -32 76 -57 81 -57 6 0 84 -79 173 -175 90 -96 171 -175 180
-175 10 0 53 38 97 85 l80 85 201 0 c114 0 202 -4 202 -9 0 -12 -57 -112 -104
-183 -32 -48 -37 -60 -26 -73 18 -22 46 -19 114 16 124 63 278 194 356 303 19
25 36 46 39 46 4 0 58 -52 121 -115 63 -63 119 -115 125 -115 15 0 255 243
255 259 0 7 -36 50 -80 96 -67 69 -78 84 -66 94 8 7 22 45 30 85 21 91 70 194
126 265 46 58 46 83 1 89 -31 5 -26 23 19 75 22 25 40 52 40 61 0 9 -34 48
-75 87 -81 77 -153 170 -205 262 -40 72 -60 74 -98 10z m108 -93 c35 -54 99
-131 146 -178 46 -46 84 -85 84 -88 0 -3 -22 -34 -49 -69 -46 -59 -68 -101
-59 -110 2 -2 20 0 41 4 20 5 37 7 37 4 0 -2 -18 -31 -41 -64 -51 -76 -84
-150 -105 -237 -12 -47 -24 -74 -43 -89 l-26 -23 90 -90 90 -90 -111 -111
-112 -111 -100 103 c-55 57 -104 107 -108 112 -4 4 15 31 43 60 42 43 52 60
58 100 6 43 -9 108 -25 107 -3 -1 -25 -45 -50 -98 -90 -193 -218 -346 -381
-454 -77 -52 -137 -83 -145 -76 -1 2 14 30 35 63 56 90 110 193 103 199 -3 3
-104 6 -224 6 -120 0 -218 2 -218 5 0 2 29 34 64 69 61 61 114 141 102 154 -3
3 -7 3 -9 1 -2 -2 -15 -24 -31 -47 -27 -43 -304 -342 -316 -342 -13 0 -295
307 -323 353 -34 53 -42 59 -33 22 4 -14 4 -25 0 -25 -3 0 -42 29 -85 65 -43
36 -83 65 -89 65 -16 0 -160 -141 -160 -157 0 -8 31 -46 70 -86 38 -39 70 -73
70 -74 0 -2 -128 -3 -285 -3 -157 0 -285 4 -285 8 0 5 10 17 21 28 12 10 39
41 60 67 l39 49 0 179 c0 235 -8 237 -64 14 -39 -151 -85 -274 -136 -356 -44
-73 -140 -183 -150 -172 -3 4 -12 28 -19 53 -18 61 -59 118 -135 186 -35 32
-62 63 -60 69 3 6 -12 29 -32 51 -47 50 -102 135 -134 204 -28 64 -29 65 -35
59 -2 -3 14 -70 35 -149 21 -79 38 -146 36 -147 -1 -2 -42 33 -90 77 -49 44
-92 80 -96 80 -4 0 -21 -24 -38 -52 -120 -214 -352 -344 -596 -336 l-87 3 60
45 c34 25 61 48 61 52 0 4 -14 16 -30 28 -24 17 -31 19 -36 7 -3 -8 -4 -20 -2
-28 3 -12 -44 -14 -280 -17 -249 -2 -282 -1 -282 13 0 36 44 187 56 192 7 2
22 -1 34 -7 45 -24 50 -3 50 189 l0 176 -81 76 c-70 66 -80 78 -74 101 9 33
-14 78 -72 139 -46 50 -88 69 -150 69 -30 0 -32 3 -37 43 -3 23 -7 60 -9 82
l-2 40 259 3 c143 1 263 -1 267 -5 14 -14 -9 -137 -27 -150 -14 -11 -10 -20
41 -93 31 -44 61 -80 66 -78 15 5 118 152 113 160 -3 4 -20 8 -39 8 -19 0 -36
3 -39 8 -2 4 -8 40 -11 80 l-8 72 282 0 281 0 0 -32 c0 -18 -3 -56 -6 -84 l-6
-52 -56 -6 c-64 -8 -106 -30 -155 -85 -49 -54 -61 -79 -62 -129 l0 -42 262 0
c185 0 264 3 269 11 4 7 14 41 23 77 10 36 21 67 26 69 6 1 28 -50 51 -114 22
-64 45 -118 51 -120 6 -2 32 39 57 92 80 169 190 297 325 379 l61 37 60 -36
c33 -20 62 -40 65 -46 10 -15 32 -10 71 16 20 14 43 25 50 25 7 0 50 -30 95
-66 l82 -66 58 58 59 59 105 -105 c58 -58 105 -109 105 -115 0 -6 -29 -40 -65
-75 -36 -35 -65 -68 -65 -72 0 -14 157 -9 168 5 5 6 20 45 33 84 13 40 27 73
30 73 3 0 18 -48 34 -107 37 -145 36 -143 95 -143 l50 0 0 115 c0 131 -6 148
-69 209 -22 22 -38 43 -35 48 3 4 30 8 60 8 112 0 249 43 336 106 26 18 52 34
56 34 5 0 19 -12 33 -26 47 -50 160 -98 269 -113 62 -8 68 -7 130 24 117 58
301 105 373 96 5 -1 -13 -25 -40 -55 -26 -30 -64 -81 -83 -112 -34 -56 -35
-63 -38 -169 -3 -93 -1 -113 12 -125 39 -31 91 65 122 225 10 47 21 85 26 85
4 0 8 -4 8 -9 0 -29 204 -330 216 -319 16 16 -70 175 -109 203 -20 14 -19 17
49 87 82 85 128 147 179 241 21 37 39 67 40 65 2 -2 31 -46 65 -98z m-2317
-994 c-47 -67 -54 -54 -22 41 42 124 43 125 47 59 3 -52 0 -65 -25 -100z
m2110 89 c-3 -9 -8 -14 -10 -11 -3 3 -2 9 2 15 9 16 15 13 8 -4z"/>
<path d="M5303 1773 c-28 -43 -72 -99 -97 -126 -25 -26 -46 -50 -46 -53 0 -3
11 -19 24 -35 42 -50 95 -246 96 -356 0 -34 4 -43 18 -43 16 0 17 -8 14 -70
-2 -38 0 -70 4 -70 5 1 27 18 50 38 34 31 43 49 58 107 14 58 33 106 74 188 2
4 -8 5 -22 1 -19 -4 -26 -2 -26 8 0 20 66 154 95 192 14 18 25 35 25 37 0 2
-30 36 -67 75 -38 39 -84 96 -103 127 -19 31 -37 57 -40 57 -3 0 -28 -35 -57
-77z"/>
<path d="M828 1795 c-3 -3 -3 -17 0 -30 3 -19 11 -25 30 -25 88 0 232 -148
232 -237 0 -22 17 -45 75 -103 l75 -74 0 -206 c0 -240 -3 -250 -74 -250 -41 0
-44 -2 -50 -31 -3 -17 -6 -35 -6 -40 0 -5 99 -9 220 -9 238 0 237 0 222 54 -7
27 -12 30 -52 30 -66 1 -70 14 -70 244 l0 192 42 45 c22 25 63 62 90 81 40 30
48 41 48 67 0 71 126 205 213 227 66 17 67 18 67 45 l0 25 -221 0 -220 0 3
-22 c2 -18 11 -24 38 -26 93 -9 80 -58 -60 -240 -30 -39 -58 -71 -62 -72 -3 0
-35 39 -71 88 -125 170 -139 204 -92 222 14 5 25 11 25 14 0 2 3 11 6 20 5 14
-16 16 -198 16 -113 0 -207 -2 -210 -5z"/>
<path d="M4110 1769 c-57 -38 -131 -65 -214 -80 -36 -6 -66 -13 -66 -16 0 -3
9 -16 20 -30 18 -23 20 -41 20 -184 0 -152 -1 -159 -24 -186 l-24 -28 24 -28
c20 -23 24 -39 24 -93 0 -35 -5 -73 -12 -83 -9 -15 -6 -27 15 -64 26 -43 274
-317 288 -317 13 0 275 289 294 324 16 30 18 40 7 56 -6 11 -12 49 -12 84 0
53 4 69 24 93 l24 28 -24 30 c-23 29 -24 37 -24 180 0 132 2 154 20 183 11 18
20 34 20 36 0 2 -24 7 -52 11 -84 12 -172 43 -228 80 -29 19 -53 35 -54 34 0
0 -21 -14 -46 -30z m66 -139 c5 -5 27 -10 49 -11 50 -3 59 -7 45 -24 -7 -9 -9
-62 -6 -162 6 -180 6 -157 0 -334 l-5 -146 -49 -54 -50 -54 -49 55 -50 55 -5
145 c-2 80 -4 156 -4 170 0 14 1 98 2 186 l1 162 39 0 c21 1 44 6 49 11 13 13
20 14 33 1z"/>
<path d="M4125 1558 c-3 -11 -15 -229 -15 -293 0 -11 3 -84 7 -162 7 -118 11
-145 26 -160 18 -17 19 -17 43 10 23 27 24 35 25 165 2 271 -3 427 -13 440 -6
6 -24 12 -40 12 -16 0 -30 -6 -33 -12z m46 -415 c-2 -84 -8 -153 -12 -153 -15
0 -15 523 0 545 9 15 17 -220 12 -392z"/>
<path d="M2735 1764 c-59 -39 -151 -131 -201 -201 -49 -68 -114 -200 -114
-232 0 -19 -6 -21 -54 -21 l-54 0 -28 80 c-15 44 -30 80 -34 80 -3 0 -14 -35
-25 -77 l-20 -78 -67 -3 c-38 -2 -68 -7 -68 -12 0 -4 23 -28 51 -52 l51 -44
-16 -78 c-23 -114 -23 -114 38 -62 30 25 59 46 65 46 5 0 37 -25 71 -56 33
-31 62 -55 64 -53 2 2 -7 46 -21 98 l-25 93 38 39 c21 22 41 39 45 39 4 0 10
-16 13 -35 11 -58 82 -188 143 -260 62 -74 83 -88 83 -57 0 46 71 69 103 34
32 -35 14 -90 -40 -120 -15 -9 -13 -14 19 -50 20 -22 47 -59 60 -81 13 -23 26
-41 30 -41 15 0 102 146 134 225 19 46 50 146 69 222 43 164 51 186 76 209 10
9 19 22 19 27 0 16 -219 2 -261 -17 -48 -20 -96 -61 -114 -97 -21 -39 -19 -41
18 -20 17 11 47 22 66 26 l34 7 -8 -38 c-8 -48 -54 -134 -70 -134 -22 0 -106
100 -132 156 -50 109 -19 232 87 347 l46 49 80 -40 c79 -40 131 -81 167 -132
l18 -25 -6 34 c-20 123 -19 138 9 166 22 22 34 26 67 23 21 -2 39 -2 39 0 0 7
-58 54 -104 84 l-49 32 -28 -32 c-16 -18 -29 -39 -29 -47 0 -20 -5 -19 -37 11
-41 39 -125 94 -143 94 -8 0 -33 -12 -55 -26z m-465 -469 c8 -20 16 -25 45
-25 41 0 44 -8 11 -39 -20 -19 -23 -29 -19 -59 l6 -36 -26 17 c-26 17 -28 17
-54 0 l-26 -17 6 40 c6 34 3 44 -13 59 -28 25 -25 35 10 35 23 0 31 5 36 25 3
14 8 25 10 25 3 0 9 -11 14 -25z"/>
<path d="M4745 1756 c-78 -25 -177 -73 -215 -104 l-25 -20 21 -24 c43 -47 44
-56 44 -370 0 -296 -1 -304 -24 -353 -12 -27 -30 -56 -39 -64 -10 -7 -17 -17
-17 -22 0 -5 68 -9 151 -9 140 0 151 1 144 18 -27 63 -34 95 -35 156 0 99 24
179 67 216 41 37 53 37 92 5 90 -76 48 -308 -96 -534 -19 -29 -33 -55 -31 -57
2 -2 41 30 86 72 137 127 223 255 318 477 19 43 34 86 34 94 0 8 -28 45 -62
83 -35 37 -85 105 -112 150 l-49 83 -19 -68 c-30 -108 -81 -160 -150 -153 -51
5 -71 43 -76 144 -6 109 10 180 54 245 19 28 34 53 34 55 0 8 -27 3 -95 -20z"/>
<path d="M3256 1659 l-68 -72 71 -70 70 -71 69 64 c38 36 70 68 71 72 1 9
-128 148 -138 148 -3 0 -37 -32 -75 -71z m70 -67 c-3 -6 -16 -8 -27 -5 -21 6
-21 7 -4 20 20 14 42 3 31 -15z"/>
<path d="M3110 1548 c0 -12 5 -50 11 -85 9 -51 15 -63 30 -63 15 0 80 25 98
37 6 5 -121 133 -131 133 -4 0 -8 -10 -8 -22z m69 -82 c9 -11 9 -16 0 -21 -10
-7 -28 10 -29 28 0 12 17 8 29 -7z"/>
<path d="M2780 1513 c-18 -20 -42 -57 -53 -82 -20 -45 -29 -142 -15 -157 4 -4
26 12 48 35 49 51 112 79 192 88 33 3 58 11 58 17 0 23 -59 75 -118 105 -34
17 -66 31 -71 31 -5 0 -24 -17 -41 -37z m128 -40 c23 -14 40 -29 37 -33 -3 -4
-28 -13 -56 -20 -28 -7 -73 -27 -100 -45 -35 -24 -49 -29 -49 -19 0 24 29 85
56 121 29 38 39 38 112 -4z"/>
<path d="M2800 1449 c-42 -59 -41 -73 5 -43 13 9 44 22 67 29 l43 12 -42 22
-43 21 -30 -41z"/>
<path d="M4500 1431 c0 -67 4 -111 10 -111 6 0 10 41 10 104 0 59 -4 108 -10
111 -6 4 -10 -33 -10 -104z"/>
<path d="M3604 1391 l-29 -81 -67 0 c-38 0 -68 -3 -68 -7 0 -4 23 -30 50 -58
l51 -51 -25 -94 c-14 -52 -23 -96 -21 -99 3 -3 31 21 63 52 32 31 63 57 69 57
6 0 36 -20 67 -46 63 -51 64 -50 39 62 l-17 78 52 46 c29 26 52 50 52 53 0 4
-31 7 -69 7 l-69 0 -17 73 c-10 39 -21 76 -25 80 -4 5 -21 -28 -36 -72z m40
-96 c5 -20 13 -25 36 -25 35 0 38 -10 9 -35 -16 -16 -19 -26 -14 -57 7 -42 1
-47 -26 -22 -17 15 -20 15 -43 0 -34 -22 -36 -21 -25 16 7 28 5 36 -16 58 -33
34 -32 40 10 40 29 0 36 4 41 25 3 14 10 25 14 25 4 0 11 -11 14 -25z"/>
<path d="M1607 1366 c-27 -8 -61 -25 -75 -40 l-27 -26 30 6 30 6 0 -179 c0
-148 3 -183 17 -209 21 -38 88 -100 133 -121 33 -16 34 -15 99 21 37 20 70 36
73 36 15 0 -84 -92 -130 -122 -26 -17 -46 -33 -43 -35 8 -8 160 38 221 67 71
34 163 105 195 150 l22 31 -33 -6 c-23 -4 -41 -1 -54 9 -18 13 -20 28 -23 175
-3 150 -2 163 18 190 11 17 29 33 40 36 11 4 20 11 20 16 0 6 -52 8 -131 7
l-131 -3 1 -167 c2 -175 -2 -198 -43 -230 -35 -29 -53 -22 -73 30 -32 84 -13
292 31 341 9 10 16 21 16 24 0 12 -133 6 -183 -7z"/>
<path d="M3233 1367 c-18 -7 -40 -19 -48 -28 -15 -15 -14 -17 9 -33 l26 -16 0
-193 c0 -166 -3 -198 -19 -233 -10 -23 -24 -45 -30 -48 -32 -20 1 -26 144 -26
85 0 155 3 155 6 0 3 -11 19 -25 35 -33 41 -37 68 -33 276 l3 181 33 40 c17
23 32 43 32 46 0 11 -215 4 -247 -7z"/>
<path d="M1787 1213 c-11 -11 -8 -163 3 -163 6 0 10 35 10 85 0 85 -1 91 -13
78z"/>
<path d="M2097 1128 c-8 -119 0 -120 22 -3 9 48 8 62 -3 73 -11 11 -14 0 -19
-70z"/>
<path d="M3470 1163 c0 -21 -3 -48 -6 -60 -4 -13 -2 -23 4 -23 5 0 13 21 18
48 11 64 11 65 -3 70 -9 2 -13 -8 -13 -35z"/>
<path d="M3766 1191 c-6 -9 12 -111 20 -120 11 -12 34 27 34 59 0 45 -38 88
-54 61z"/>
<path d="M4500 1130 c0 -22 5 -40 10 -40 6 0 10 18 10 40 0 22 -4 40 -10 40
-5 0 -10 -18 -10 -40z"/>
<path d="M4830 1108 c-32 -71 -24 -278 11 -278 8 0 32 62 49 125 22 85 7 195
-27 195 -8 0 -23 -19 -33 -42z m36 -80 c-7 -74 -26 -103 -26 -41 0 56 10 103
23 103 6 0 8 -22 3 -62z"/>
<path d="M1492 980 c2 -25 7 -44 13 -42 12 3 7 63 -6 77 -7 7 -9 -6 -7 -35z"/>
<path d="M5294 914 c-32 -36 -61 -70 -63 -76 -4 -12 118 -138 134 -138 12 0
135 122 135 134 0 10 -131 146 -140 146 -3 0 -33 -30 -66 -66z m66 -64 c0 -21
-15 -27 -25 -10 -7 12 2 30 16 30 5 0 9 -9 9 -20z"/>
<path d="M1337 1740 c-16 -43 -15 -65 4 -92 11 -15 25 -28 30 -28 19 0 21 31
4 44 -10 7 -21 30 -25 52 -4 23 -9 33 -13 24z"/>
<path d="M4871 1609 c-6 -18 -11 -48 -10 -68 l0 -36 13 35 c19 51 27 100 17
100 -5 0 -14 -14 -20 -31z"/>
</g>
</svg>
